<?xml version="1.0" encoding="UTF-8" standalone="no"?>
<!-- Created with Inkscape (http://www.inkscape.org/) -->

<svg
   width="300"
   height="300"
   viewBox="0 0 79.374998 79.375"
   version="1.1"
   id="svg1118"
   inkscape:version="1.2.1 (9c6d41e410, 2022-07-14)"
   sodipodi:docname="switch_on.svg"
   xmlns:inkscape="http://www.inkscape.org/namespaces/inkscape"
   xmlns:sodipodi="http://sodipodi.sourceforge.net/DTD/sodipodi-0.dtd"
   xmlns="http://www.w3.org/2000/svg"
   xmlns:svg="http://www.w3.org/2000/svg">
  <sodipodi:namedview
     id="namedview1120"
     pagecolor="#000000"
     bordercolor="#000000"
     borderopacity="0.25"
     inkscape:showpageshadow="2"
     inkscape:pageopacity="0"
     inkscape:pagecheckerboard="0"
     inkscape:deskcolor="#d1d1d1"
     inkscape:document-units="mm"
     showgrid="false"
     inkscape:zoom="1.4324916"
     inkscape:cx="181.85098"
     inkscape:cy="161.60653"
     inkscape:window-width="1920"
     inkscape:window-height="991"
     inkscape:window-x="-9"
     inkscape:window-y="-9"
     inkscape:window-maximized="1"
     inkscape:current-layer="layer1" />
  <defs
     id="defs1115">
    <rect
       x="126.35327"
       y="90.052887"
       width="48.865906"
       height="30.017628"
       id="rect416-9" />
  </defs>
  <g
     inkscape:label="Layer 1"
     inkscape:groupmode="layer"
     id="layer1">
    <path
       id="rect358"
       style="fill:#ffffff;fill-rule:evenodd;stroke-width:0.264583"
       d="m 18.43185,5.5296963 c -2.460049,0 -4.440556,1.980507 -4.440556,4.440555 V 67.234975 c 0,2.46005 1.980507,4.44055 4.440556,4.44055 h 44.035556 c 2.46005,0 4.44055,-1.9805 4.44055,-4.44055 V 9.9702513 c 0,-2.460048 -1.9805,-4.440555 -4.44055,-4.440555 z m 1.436605,1.175638 h 41.389721 c 2.46005,0 4.44055,1.980508 4.44055,4.4405557 v 54.618885 c 0,2.46005 -1.9805,4.44056 -4.44055,4.44056 H 19.868455 c -2.460049,0 -4.440556,-1.98051 -4.440556,-4.44056 V 11.14589 c 0,-2.4600477 1.980507,-4.4405557 4.440556,-4.4405557 z" />
    <path
       id="path524"
       style="fill:#ffffff;fill-rule:evenodd;stroke:#000000;stroke-width:0"
       d="m 41.091576,7.9056553 a 3.175,3.175 0 0 0 -3.175,3.1749997 3.175,3.175 0 0 0 0.333829,1.41335 l 4.695321,-3.9909697 a 3.175,3.175 0 0 0 -1.85415,-0.59738 z m 2.800345,1.678451 -4.726843,4.0178417 a 3.175,3.175 0 0 0 1.926498,0.653707 3.175,3.175 0 0 0 3.174999,-3.175 3.175,3.175 0 0 0 -0.374654,-1.4965487 z" />
    <path
       id="path529"
       style="fill:#ffffff;fill-rule:evenodd;stroke:#000000;stroke-width:0"
       d="m 37.913245,65.357705 a 3.175,3.175 0 0 0 2.388169,3.80236 3.175,3.175 0 0 0 1.4522,-0.0107 l -2.845061,-5.46622 a 3.175,3.175 0 0 0 -0.995308,1.67455 z m 2.259952,-2.35621 2.864239,5.50293 a 3.175,3.175 0 0 0 1.066332,-1.73253 3.175,3.175 0 0 0 -2.388169,-3.80235 3.175,3.175 0 0 0 -1.542402,0.0319 z" />
    <path
       id="rect296"
       style="fill:#ffffff;fill-rule:evenodd;stroke-width:0.264583"
       d="M 26.442213,60.982645 V 16.10011 h 29.182713 v 44.882535 z m 4.24832,-3.324861 H 51.192126 V 40.480538 H 30.690533 Z m 0,-20.501591 H 51.192126 V 36.232219 H 30.690533 Z" />
    <text
       xml:space="preserve"
       transform="matrix(0.26458333,0,0,0.26458333,2.4804346,21.803649)"
       id="text414-3"
       style="font-size:24px;font-family:'Futura Bk BT';-inkscape-font-specification:'Futura Bk BT';white-space:pre;shape-inside:url(#rect416-9);display:inline;fill:#ffffff;fill-rule:evenodd;stroke:#000000;stroke-width:0"><tspan
         x="126.35352"
         y="111.28711"
         id="tspan731">ON</tspan></text>
  </g>
</svg>
